<mxfile host="app.diagrams.net" modified="2022-10-10T07:17:00.505Z" agent="5.0 (Windows NT 10.0; Win64; x64) AppleWebKit/537.36 (KHTML, like Gecko) Chrome/106.0.0.0 Safari/537.36 Edg/106.0.1370.37" etag="2GNnmoZmP8aKYg7UMyf8" version="20.4.0" type="github">
  <diagram name="Page-1" id="efa7a0a1-bf9b-a30e-e6df-94a7791c09e9">
    <mxGraphModel dx="1017" dy="947" grid="1" gridSize="10" guides="1" tooltips="1" connect="1" arrows="1" fold="1" page="1" pageScale="1" pageWidth="826" pageHeight="1169" background="none" math="0" shadow="0">
      <root>
        <mxCell id="0" />
        <mxCell id="1" parent="0" />
        <mxCell id="OONIOlBQQDIUEP5xMChf-114" value="Специальное программное обеспечение:&lt;br&gt;1. расширяемое&lt;br&gt;2. использование перспективных технологий&lt;br&gt;3. использование общей базы данных&lt;br&gt;4. экспорт данных: как на основе шаблона так и используя пользовательские настройки" style="rounded=0;whiteSpace=wrap;html=1;" vertex="1" parent="1">
          <mxGeometry x="60" y="10" width="750" height="100" as="geometry" />
        </mxCell>
        <mxCell id="OONIOlBQQDIUEP5xMChf-118" style="edgeStyle=orthogonalEdgeStyle;rounded=0;orthogonalLoop=1;jettySize=auto;html=1;exitX=0.5;exitY=1;exitDx=0;exitDy=0;entryX=0.5;entryY=0;entryDx=0;entryDy=0;" edge="1" parent="1" source="OONIOlBQQDIUEP5xMChf-115" target="OONIOlBQQDIUEP5xMChf-117">
          <mxGeometry relative="1" as="geometry" />
        </mxCell>
        <mxCell id="OONIOlBQQDIUEP5xMChf-119" style="edgeStyle=orthogonalEdgeStyle;rounded=0;orthogonalLoop=1;jettySize=auto;html=1;exitX=0.5;exitY=1;exitDx=0;exitDy=0;entryX=0.5;entryY=0;entryDx=0;entryDy=0;" edge="1" parent="1" source="OONIOlBQQDIUEP5xMChf-115" target="OONIOlBQQDIUEP5xMChf-116">
          <mxGeometry relative="1" as="geometry" />
        </mxCell>
        <mxCell id="OONIOlBQQDIUEP5xMChf-115" value="Технологии" style="ellipse;whiteSpace=wrap;html=1;" vertex="1" parent="1">
          <mxGeometry x="375" y="120" width="120" height="40" as="geometry" />
        </mxCell>
        <mxCell id="OONIOlBQQDIUEP5xMChf-116" value="Основные" style="shape=hexagon;perimeter=hexagonPerimeter2;whiteSpace=wrap;html=1;fixedSize=1;" vertex="1" parent="1">
          <mxGeometry x="120" y="200" width="120" height="30" as="geometry" />
        </mxCell>
        <mxCell id="OONIOlBQQDIUEP5xMChf-117" value="Сопутствующие" style="shape=hexagon;perimeter=hexagonPerimeter2;whiteSpace=wrap;html=1;fixedSize=1;" vertex="1" parent="1">
          <mxGeometry x="620" y="200" width="120" height="30" as="geometry" />
        </mxCell>
        <mxCell id="OONIOlBQQDIUEP5xMChf-120" value="Django - backend framework" style="rounded=1;whiteSpace=wrap;html=1;arcSize=27;fillColor=#dae8fc;strokeColor=#6c8ebf;fillStyle=auto;gradientColor=#66B2FF;" vertex="1" parent="1">
          <mxGeometry x="105" y="290" width="150" height="30" as="geometry" />
        </mxCell>
        <mxCell id="OONIOlBQQDIUEP5xMChf-128" value="" style="shape=image;verticalLabelPosition=bottom;labelBackgroundColor=default;verticalAlign=top;aspect=fixed;imageAspect=0;image=https://habrastorage.org/getpro/habr/post_images/1d5/28e/2cb/1d528e2cb5fbc29ad16c74e5d883c371.png;direction=east;" vertex="1" parent="1">
          <mxGeometry x="29.999999999999947" y="290" width="65.82" height="30" as="geometry" />
        </mxCell>
        <mxCell id="OONIOlBQQDIUEP5xMChf-129" value="" style="shape=image;verticalLabelPosition=bottom;labelBackgroundColor=default;verticalAlign=top;aspect=fixed;imageAspect=0;image=https://logos-world.net/wp-content/uploads/2021/10/Python-Symbol.png;" vertex="1" parent="1">
          <mxGeometry x="41.92" y="240" width="70.99" height="40" as="geometry" />
        </mxCell>
        <mxCell id="OONIOlBQQDIUEP5xMChf-130" value="Python - основной язык для разработки" style="rounded=1;whiteSpace=wrap;html=1;arcSize=27;fillColor=#dae8fc;strokeColor=#6c8ebf;fillStyle=auto;gradientColor=#66B2FF;" vertex="1" parent="1">
          <mxGeometry x="105" y="240" width="150" height="40" as="geometry" />
        </mxCell>
        <mxCell id="OONIOlBQQDIUEP5xMChf-132" value="&lt;font style=&quot;font-size: 10px;&quot;&gt;&lt;span style=&quot;font-family: sans-serif; text-align: start;&quot;&gt;Свободный фреймворк для веб приложений &lt;/span&gt;&lt;span style=&quot;font-family: sans-serif; text-align: start;&quot;&gt;на языке Python&lt;/span&gt;&lt;/font&gt;" style="rounded=1;whiteSpace=wrap;html=1;fillStyle=auto;fillColor=#fff2cc;strokeColor=#d6b656;" vertex="1" parent="1">
          <mxGeometry x="110" y="330" width="145" height="50" as="geometry" />
        </mxCell>
        <mxCell id="OONIOlBQQDIUEP5xMChf-133" value="" style="shape=image;verticalLabelPosition=bottom;labelBackgroundColor=default;verticalAlign=top;aspect=fixed;imageAspect=0;image=https://blog.skillfactory.ru/wp-content/uploads/2021/12/sqlite370.svg-5360687.png;" vertex="1" parent="1">
          <mxGeometry x="32.41" y="400" width="63.41" height="30" as="geometry" />
        </mxCell>
        <mxCell id="OONIOlBQQDIUEP5xMChf-134" value="База данных &lt;br&gt;(встроена в django)" style="rounded=1;whiteSpace=wrap;html=1;arcSize=27;fillColor=#dae8fc;strokeColor=#6c8ebf;fillStyle=auto;gradientColor=#66B2FF;" vertex="1" parent="1">
          <mxGeometry x="105" y="400" width="150" height="30" as="geometry" />
        </mxCell>
        <mxCell id="OONIOlBQQDIUEP5xMChf-136" value="&lt;span style=&quot;color: rgb(44, 49, 66); font-family: Rubik, stk; text-align: start;&quot;&gt;&lt;font style=&quot;font-size: 10px;&quot;&gt;SQLite — это быстрая и легкая встраиваемая однофайловая СУБД на языке C, которая не имеет сервера и позволяет хранить всю базу локально на одном устройстве. Для работы SQLite не нужны сторонние библиотеки или службы&lt;/font&gt;&lt;/span&gt;" style="rounded=1;whiteSpace=wrap;html=1;fillStyle=auto;fillColor=#fff2cc;strokeColor=#d6b656;" vertex="1" parent="1">
          <mxGeometry x="110" y="440" width="145" height="120" as="geometry" />
        </mxCell>
        <mxCell id="OONIOlBQQDIUEP5xMChf-137" value="" style="shape=image;verticalLabelPosition=bottom;labelBackgroundColor=default;verticalAlign=top;aspect=fixed;imageAspect=0;image=https://blog.skillfactory.ru/wp-content/uploads/2021/12/logo-vuejs-9686556.png;" vertex="1" parent="1">
          <mxGeometry x="29.15" y="565" width="66.67" height="40" as="geometry" />
        </mxCell>
        <mxCell id="OONIOlBQQDIUEP5xMChf-138" value="Vue js - frontend framework" style="rounded=1;whiteSpace=wrap;html=1;arcSize=27;fillColor=#dae8fc;strokeColor=#6c8ebf;fillStyle=auto;gradientColor=#66B2FF;" vertex="1" parent="1">
          <mxGeometry x="105" y="570" width="150" height="30" as="geometry" />
        </mxCell>
        <mxCell id="OONIOlBQQDIUEP5xMChf-139" value="&lt;font style=&quot;font-size: 10px;&quot;&gt;&lt;span style=&quot;font-weight: 600; color: rgb(39, 56, 73); font-family: &amp;quot;Source Sans Pro&amp;quot;, &amp;quot;Helvetica Neue&amp;quot;, Arial, sans-serif; text-align: start; word-spacing: 0.8px;&quot;&gt;прогрессивный фреймворк&lt;/span&gt;&lt;span style=&quot;color: rgb(48, 68, 85); font-family: &amp;quot;Source Sans Pro&amp;quot;, &amp;quot;Helvetica Neue&amp;quot;, Arial, sans-serif; text-align: start; word-spacing: 0.8px;&quot;&gt;&amp;nbsp;для создания пользовательских интерфейсов. Его ядро в первую очередь решает задачи уровня представления (view), что упрощает интеграцию с другими библиотеками и существующими проектами.&amp;nbsp;&lt;/span&gt;&lt;/font&gt;" style="rounded=1;whiteSpace=wrap;html=1;fillStyle=auto;fillColor=#fff2cc;strokeColor=#d6b656;" vertex="1" parent="1">
          <mxGeometry x="110" y="610" width="145" height="160" as="geometry" />
        </mxCell>
        <mxCell id="OONIOlBQQDIUEP5xMChf-143" style="edgeStyle=orthogonalEdgeStyle;rounded=0;orthogonalLoop=1;jettySize=auto;html=1;exitX=0;exitY=0.5;exitDx=0;exitDy=0;entryX=1;entryY=0.5;entryDx=0;entryDy=0;fontFamily=Helvetica;fontSize=10;fontColor=default;startArrow=classic;startFill=1;" edge="1" parent="1" source="OONIOlBQQDIUEP5xMChf-140" target="OONIOlBQQDIUEP5xMChf-138">
          <mxGeometry relative="1" as="geometry" />
        </mxCell>
        <mxCell id="OONIOlBQQDIUEP5xMChf-140" value="" style="shape=image;verticalLabelPosition=bottom;labelBackgroundColor=default;verticalAlign=top;aspect=fixed;imageAspect=0;image=https://upload.wikimedia.org/wikipedia/commons/thumb/3/33/Figma-logo.svg/53px-Figma-logo.svg.png;" vertex="1" parent="1">
          <mxGeometry x="560" y="244.89999999999998" width="23.55" height="35.1" as="geometry" />
        </mxCell>
        <mxCell id="OONIOlBQQDIUEP5xMChf-141" value="&lt;font style=&quot;font-size: 10px;&quot;&gt;Figma -&amp;nbsp;&lt;span style=&quot;color: rgb(32, 33, 34); font-family: sans-serif; text-align: start;&quot;&gt;сервис для разработки интерфейсов и прототипирования&lt;/span&gt;&lt;/font&gt;" style="rounded=1;whiteSpace=wrap;html=1;arcSize=27;fillColor=#dae8fc;strokeColor=#6c8ebf;fillStyle=auto;gradientColor=#66B2FF;" vertex="1" parent="1">
          <mxGeometry x="602.6600000000001" y="240" width="150" height="50" as="geometry" />
        </mxCell>
        <mxCell id="OONIOlBQQDIUEP5xMChf-142" value="&lt;div style=&quot;&quot;&gt;&lt;span style=&quot;background-color: initial; font-size: 10px; word-spacing: 0.8px;&quot;&gt;&lt;font face=&quot;Source Sans Pro, Helvetica Neue, Arial, sans-serif&quot; color=&quot;#273849&quot;&gt;&lt;b&gt;Предполагается использовать для создания отдельных элементов интерфейса. Имеется возможность экспорта готовых элементов в HTML, CSS, Vue js&lt;/b&gt;&lt;/font&gt;&lt;/span&gt;&lt;/div&gt;" style="rounded=1;whiteSpace=wrap;html=1;fillStyle=auto;fillColor=#fff2cc;strokeColor=#d6b656;align=center;" vertex="1" parent="1">
          <mxGeometry x="607.66" y="300" width="145" height="100" as="geometry" />
        </mxCell>
      </root>
    </mxGraphModel>
  </diagram>
</mxfile>
